<?xml version="1.0" encoding="utf-8"?><!-- Uploaded to: SVG Repo, www.svgrepo.com, Generator: SVG Repo Mixer Tools -->
<svg fill="#000000" width="800px" height="800px" viewBox="0 0 24 24" id="receipt" data-name="Flat Line" xmlns="http://www.w3.org/2000/svg" class="icon flat-line"><path id="secondary" d="M17,3V16H10a1,1,0,0,0-1,1v1a3,3,0,0,1-3,3H5.84A3.13,3.13,0,0,1,3,17.83V3L7,5l3-2,3,2Z" style="fill: rgb(44, 169, 188); stroke-width: 2;"></path><line id="primary" x1="8" y1="10" x2="12" y2="10" style="fill: none; stroke: rgb(0, 0, 0); stroke-linecap: round; stroke-linejoin: round; stroke-width: 2;"></line><path id="primary-2" data-name="primary" d="M6,21H18a3,3,0,0,0,3-3V17a1,1,0,0,0-1-1H10a1,1,0,0,0-1,1v1a3,3,0,0,1-3.16,3A3.13,3.13,0,0,1,3,17.83V3L7,5l3-2,3,2,4-2V16" style="fill: none; stroke: rgb(0, 0, 0); stroke-linecap: round; stroke-linejoin: round; stroke-width: 2;"></path></svg>